<svg xmlns="http://www.w3.org/2000/svg" version="1.1" xmlns:xlink="http://www.w3.org/1999/xlink" xmlns:svgjs="http://svgjs.dev/svgjs" width="1500" height="1500" viewBox="0 0 1500 1500"><rect width="1500" height="1500" fill="#fafaff"></rect><g transform="matrix(0.6666666666666666,0,0,0.6666666666666666,249.6781638576498,140.37311827957)"><svg viewBox="0 0 204 248" data-background-color="#fafaff" preserveAspectRatio="xMidYMid meet" height="1823" width="1500" xmlns="http://www.w3.org/2000/svg" xmlns:xlink="http://www.w3.org/1999/xlink"><g id="tight-bounds" transform="matrix(1,0,0,1,0.06565457303943845,0.4000000000000057)"><svg viewBox="0 0 203.86869085392112 247.2" height="247.2" width="203.86869085392112"><g><svg viewBox="0 0 203.86869085392112 247.2" height="247.2" width="203.86869085392112"><g><svg viewBox="0 0 245.672304 297.88876994513714" height="247.2" width="203.86869085392112"><g><svg viewBox="0 0 245.672304 297.88876994513714" height="297.88876994513714" width="245.672304"><g id="textblocktransform"><svg viewBox="0 0 245.672304 297.88876994513714" height="297.88876994513714" width="245.672304" id="textblock"><g><svg viewBox="0 0 245.672304 245.672304" height="245.672304" width="245.672304"><g transform="matrix(1,0,0,1,64.93063463062566,78.93267010897333)"><svg viewBox="0 0 115.81103473874867 87.80696378205336" height="87.80696378205336" width="115.81103473874867"><g id="icon-0"><svg xmlns="http://www.w3.org/2000/svg" xmlns:xlink="http://www.w3.org/1999/xlink" version="1.1" x="0" y="0" viewBox="0.747 13.013 97.90134751170787 74.22798781279273" enable-background="new 0 0 100 100" xml:space="preserve" height="87.80696378205336" width="115.81103473874867" class="icon-jxe-0" data-fill-palette-color="accent" id="jxe-0"><path d="M11.195 50.234A5.14 5.14 0 0 0 16.312 45.122C16.295 42.298 14.013 40.01 11.195 40.005A5.12 5.12 0 0 0 6.08 45.122C6.08 47.944 8.366 50.224 11.195 50.234" fill="#001f3f" data-fill-palette-color="accent"></path><polygon points="58.511,76.288 22.564,76.288 0.747,55.995 5.491,50.89 25.305,69.317 58.511,69.317 58.511,76.288 " fill="#001f3f" data-fill-palette-color="accent"></polygon><path d="M53.359 66.991A3.8 3.8 0 0 1 51.252 66.365L42.4 60.609 30.555 66.581A3.87 3.87 0 0 1 26.277 66.05L15.643 56.841C13.821 55.204 13.311 52.526 14.711 50.908 16.113 49.292 18.778 48.645 20.973 50.587L29.777 58.214 40.903 52.691A3.88 3.88 0 0 1 44.759 52.902L55.473 59.878A3.87 3.87 0 0 1 53.359 66.991" fill="#001f3f" data-fill-palette-color="accent"></path><g fill="#001f3f" data-fill-palette-color="accent"><path d="M77.06 44.818A5.284 5.284 0 0 1 71.784 39.539 5.279 5.279 0 1 1 82.344 39.539 5.28 5.28 0 0 1 77.06 44.818" fill="#001f3f" data-fill-palette-color="accent"></path></g><path d="M98.146 62.505S95.341 51.086 90.827 46.403C89.269 44.355 84.659 41.996 81.907 45.483 80.02 48.638 78.327 53.616 76.796 57.173L68.92 57.158 63.358 50.321 61.531 51.807 66.524 57.946A2.93 2.93 0 0 0 65.563 60.11 2.955 2.955 0 0 0 68.515 63.07L73.069 63.075C71.535 63.429 70.001 64.593 69.756 66.433L64.297 82.148C63.577 84.366 64.604 86.513 66.43 87.062 69.057 87.814 70.992 86.046 71.44 84.555L76.191 70.668H94.295C96.903 70.668 98.457 68.515 98.622 66.617 98.784 64.731 98.146 62.505 98.146 62.505M83.461 62.789H80.971L85.981 51.703C86.143 51.351 86.717 50.798 87.335 51.212 87.657 51.427 88.313 52.09 88.151 52.442z" fill="#001f3f" data-fill-palette-color="accent"></path><g fill="#001f3f" data-fill-palette-color="accent"><path d="M43.497 30.458A2.34 2.34 0 1 1 43.504 25.777 2.34 2.34 0 0 1 43.497 30.458" fill="#001f3f" data-fill-palette-color="accent"></path></g><g fill="#001f3f" data-fill-palette-color="accent"><path d="M50.365 30.458A2.34 2.34 0 1 1 50.372 25.777 2.34 2.34 0 0 1 50.365 30.458" fill="#001f3f" data-fill-palette-color="accent"></path></g><g fill="#001f3f" data-fill-palette-color="accent"><path d="M57.234 30.458A2.34 2.34 0 0 1 54.898 28.117 2.34 2.34 0 1 1 57.234 30.458" fill="#001f3f" data-fill-palette-color="accent"></path></g><path d="M50.312 43.737H23.405L36.995 36.018A15.24 15.24 0 0 1 34.952 28.375C34.952 19.904 41.842 13.013 50.312 13.013 58.785 13.013 65.678 19.904 65.678 28.375S58.785 43.737 50.312 43.737M33.414 41.094H50.312C57.326 41.094 63.034 35.388 63.034 28.376S57.326 15.657 50.312 15.657C43.3 15.657 37.595 21.363 37.595 28.376 37.595 31.015 38.406 33.553 39.939 35.716L40.785 36.908z" fill="#001f3f" data-fill-palette-color="accent"></path></svg></g></svg></g><g id="text-0"><path d="M23.403 98.142v0c-0.249-0.168-0.554-0.351-0.916-0.547-0.37-0.193-0.762-0.368-1.174-0.527v0c-0.375-0.144-0.753-0.259-1.134-0.347-0.39-0.084-0.725-0.15-1.005-0.199v0c0.185-0.483 0.31-0.923 0.374-1.32 0.071-0.395 0.064-0.755-0.023-1.08-0.083-0.316-0.254-0.592-0.512-0.83-0.262-0.246-0.625-0.458-1.089-0.635v0c-0.914-0.35-1.705-0.624-2.372-0.822-0.665-0.204-1.228-0.34-1.69-0.407-0.453-0.072-0.818-0.08-1.094-0.026-0.278 0.061-0.481 0.172-0.609 0.334v0c0.012-0.221-0.025-0.428-0.111-0.621-0.093-0.196-0.289-0.406-0.589-0.63-0.309-0.22-0.756-0.468-1.343-0.744-0.58-0.273-1.368-0.601-2.365-0.983v0c-0.47-0.18-0.882-0.265-1.235-0.255-0.357 0.001-0.672 0.092-0.945 0.272-0.275 0.186-0.521 0.448-0.739 0.787-0.217 0.339-0.418 0.75-0.603 1.233v0c-0.241-0.151-0.531-0.324-0.871-0.52-0.342-0.19-0.704-0.357-1.086-0.503v0c-0.413-0.158-0.821-0.289-1.225-0.393-0.4-0.095-0.749-0.163-1.047-0.205v0c0.111-0.118 0.271-0.373 0.48-0.766 0.213-0.384 0.445-0.849 0.697-1.393 0.252-0.544 0.52-1.137 0.802-1.78 0.28-0.636 0.553-1.263 0.82-1.881 0.273-0.616 0.517-1.197 0.732-1.74 0.222-0.541 0.401-0.99 0.537-1.346v0c0.346-0.902 0.674-1.788 0.986-2.658 0.316-0.862 0.591-1.667 0.827-2.415 0.233-0.741 0.415-1.396 0.546-1.964 0.131-0.569 0.191-1.001 0.18-1.297v0c0.231 0.081 0.505 0.088 0.822 0.02 0.317-0.068 0.653-0.183 1.007-0.346 0.356-0.169 0.717-0.37 1.082-0.601 0.368-0.238 0.707-0.486 1.018-0.746 0.319-0.264 0.597-0.532 0.833-0.806 0.234-0.267 0.403-0.519 0.508-0.755v0c0.111 0.13 0.288 0.274 0.533 0.433 0.242 0.166 0.52 0.334 0.833 0.505 0.32 0.173 0.657 0.339 1.012 0.497 0.348 0.155 0.684 0.295 1.008 0.419v0c0.692 0.265 1.353 0.479 1.983 0.64 0.63 0.161 1.136 0.21 1.518 0.145v0c-0.086 0.491-0.086 1.012 0.001 1.562 0.085 0.557 0.229 1.104 0.432 1.64v0c0.573-0.45 1.101-0.973 1.583-1.567 0.485-0.601 0.883-1.184 1.195-1.748v0c0.106 0.142 0.261 0.289 0.465 0.44 0.204 0.151 0.439 0.299 0.703 0.444 0.271 0.148 0.559 0.291 0.863 0.429 0.31 0.141 0.621 0.271 0.932 0.39v0c0.324 0.124 0.67 0.246 1.039 0.366 0.376 0.122 0.736 0.227 1.081 0.316 0.347 0.082 0.666 0.142 0.957 0.181 0.295 0.047 0.523 0.051 0.684 0.011v0c-0.104 0.31-0.178 0.682-0.22 1.117-0.045 0.441-0.058 0.903-0.039 1.383 0.024 0.49 0.069 0.98 0.135 1.472 0.073 0.494 0.175 0.959 0.307 1.395 0.131 0.436 0.287 0.82 0.465 1.151 0.182 0.324 0.385 0.563 0.611 0.715v0c-0.112 0.103-0.292 0.401-0.54 0.896-0.245 0.489-0.53 1.097-0.852 1.825-0.32 0.722-0.658 1.528-1.015 2.419-0.362 0.888-0.716 1.783-1.061 2.685v0c-0.131 0.343-0.299 0.799-0.503 1.369-0.204 0.57-0.42 1.183-0.65 1.838-0.223 0.657-0.452 1.323-0.689 1.997-0.236 0.674-0.443 1.298-0.618 1.871-0.182 0.571-0.332 1.056-0.449 1.456-0.119 0.406-0.179 0.656-0.178 0.75zM13.33 83.381v0c0.116-0.13 0.222-0.265 0.318-0.403 0.099-0.144 0.2-0.313 0.303-0.506 0.101-0.187 0.207-0.408 0.32-0.664 0.112-0.255 0.236-0.558 0.369-0.907v0c0.207-0.54 0.295-1.016 0.264-1.429-0.029-0.419-0.145-0.78-0.349-1.084-0.202-0.31-0.48-0.581-0.836-0.812-0.356-0.231-0.753-0.43-1.191-0.598v0c-0.381-0.146-0.758-0.265-1.131-0.357-0.366-0.089-0.722-0.102-1.067-0.037-0.341 0.073-0.659 0.246-0.952 0.519-0.285 0.269-0.542 0.702-0.772 1.3v0c-0.187 0.489-0.343 0.99-0.466 1.503-0.124 0.513-0.174 1.004-0.149 1.472v0c0.281 0.159 0.601 0.314 0.957 0.466 0.361 0.16 0.729 0.312 1.104 0.455v0c0.578 0.221 1.152 0.423 1.723 0.606 0.562 0.186 1.08 0.345 1.555 0.476zM23.068 87.156v0c0.339-0.467 0.644-0.969 0.916-1.506 0.278-0.534 0.543-1.132 0.796-1.792v0c0.236-0.616 0.343-1.161 0.321-1.636-0.028-0.477-0.144-0.896-0.348-1.258-0.207-0.371-0.498-0.686-0.872-0.946-0.374-0.26-0.799-0.481-1.275-0.663v0c-0.419-0.161-0.836-0.288-1.252-0.382-0.412-0.085-0.81-0.081-1.195 0.012-0.385 0.093-0.746 0.304-1.084 0.633-0.34 0.336-0.64 0.843-0.9 1.523v0c-0.346 0.902-0.589 1.642-0.731 2.221-0.142 0.579-0.198 1.097-0.169 1.552v0c0.346 0.198 0.738 0.392 1.175 0.582 0.437 0.189 0.897 0.377 1.38 0.561v0c0.565 0.217 1.126 0.417 1.682 0.601 0.556 0.184 1.075 0.35 1.556 0.498z" fill="#001f3f" data-fill-palette-color="primary"></path><path d="M67.986 37.463v0c-0.058-0.295-0.157-0.641-0.299-1.04-0.141-0.399-0.305-0.806-0.491-1.222v0c-0.17-0.379-0.342-0.73-0.517-1.053-0.175-0.324-0.348-0.601-0.518-0.83v0c0.532-0.261 0.948-0.563 1.248-0.906 0.307-0.346 0.534-0.679 0.682-0.999v0c0.076-0.511 0.139-1.069 0.189-1.672 0.044-0.601 0.059-1.207 0.045-1.82-0.014-0.612-0.065-1.208-0.153-1.787-0.092-0.57-0.238-1.078-0.438-1.525v0c-0.081-0.18-0.189-0.347-0.325-0.503-0.13-0.158-0.27-0.229-0.421-0.214v0c0.278-0.229 0.493-0.605 0.646-1.128 0.147-0.52 0.239-1.128 0.278-1.823 0.047-0.692 0.044-1.439-0.01-2.243-0.054-0.803-0.144-1.601-0.269-2.394-0.122-0.787-0.279-1.537-0.471-2.248-0.195-0.717-0.409-1.337-0.643-1.858v0c-0.081-0.18-0.171-0.348-0.271-0.505-0.094-0.159-0.167-0.298-0.22-0.415v0c-0.022-0.05-0.04-0.098-0.053-0.144-0.013-0.046-0.039-0.113-0.079-0.2v0c0.287-0.009 0.628-0.062 1.025-0.157 0.397-0.096 0.831-0.224 1.304-0.384 0.475-0.153 0.979-0.335 1.511-0.543 0.523-0.212 1.067-0.445 1.632-0.698v0c0.484-0.217 0.976-0.449 1.477-0.696 0.498-0.253 0.974-0.511 1.43-0.775 0.458-0.258 0.877-0.512 1.256-0.764 0.385-0.255 0.692-0.493 0.92-0.715v0l0.03 0.065 0.062 0.14c0.053 0.118 0.106 0.269 0.159 0.454 0.056 0.191 0.131 0.392 0.226 0.603v0c0.217 0.484 0.516 1.035 0.898 1.654 0.388 0.616 0.817 1.24 1.286 1.872 0.478 0.635 0.984 1.247 1.516 1.836 0.541 0.592 1.078 1.115 1.609 1.57 0.538 0.452 1.054 0.805 1.549 1.06 0.494 0.255 0.939 0.358 1.334 0.308v0c-0.118 0.12-0.174 0.268-0.17 0.445 0.014 0.18 0.071 0.382 0.171 0.605v0c0.2 0.447 0.48 0.895 0.838 1.346 0.361 0.457 0.766 0.894 1.214 1.311 0.448 0.418 0.908 0.804 1.38 1.159 0.475 0.361 0.924 0.674 1.349 0.938v0c0.206 0.027 0.441 0.044 0.705 0.053 0.271 0.005 0.548 0 0.832-0.016 0.293-0.012 0.573-0.044 0.839-0.097 0.267-0.053 0.506-0.126 0.717-0.22v0c0.064 0.277 0.159 0.588 0.285 0.934 0.119 0.349 0.264 0.713 0.434 1.091v0c0.186 0.416 0.381 0.809 0.584 1.18 0.203 0.371 0.399 0.674 0.587 0.911v0c-0.404 0.129-0.866 0.28-1.384 0.453-0.516 0.179-1.068 0.378-1.655 0.596-0.588 0.219-1.194 0.453-1.82 0.704-0.628 0.244-1.249 0.504-1.863 0.78v0c-1.123 0.504-2.175 1.016-3.156 1.538-0.978 0.528-1.787 1.01-2.426 1.445v0c-0.05-0.194-0.148-0.489-0.296-0.885-0.15-0.402-0.331-0.839-0.543-1.31v0c-0.092-0.205-0.19-0.407-0.294-0.606-0.098-0.202-0.194-0.39-0.287-0.565-0.093-0.174-0.178-0.33-0.254-0.467-0.083-0.134-0.142-0.234-0.179-0.3v0c0.186-0.083 0.382-0.179 0.587-0.285 0.203-0.113 0.4-0.239 0.591-0.377 0.188-0.129 0.362-0.274 0.521-0.435 0.153-0.158 0.274-0.335 0.365-0.532v0c-0.208-0.414-0.439-0.746-0.693-0.997-0.251-0.245-0.584-0.398-0.999-0.458-0.412-0.054-0.927 0.002-1.546 0.167-0.622 0.159-1.398 0.448-2.328 0.865v0c-0.838 0.376-1.517 0.721-2.039 1.038-0.531 0.312-0.928 0.632-1.191 0.958-0.27 0.33-0.416 0.686-0.438 1.068-0.019 0.389 0.063 0.847 0.248 1.376v0c0.211 0.055 0.445 0.069 0.701 0.043 0.257-0.026 0.514-0.067 0.772-0.122 0.261-0.065 0.514-0.141 0.759-0.228 0.241-0.093 0.458-0.183 0.65-0.27v0c0.012 0.077 0.039 0.187 0.082 0.332 0.049 0.142 0.109 0.309 0.18 0.501 0.071 0.192 0.151 0.394 0.239 0.608 0.095 0.211 0.185 0.413 0.271 0.605v0c0.211 0.472 0.417 0.897 0.618 1.277 0.197 0.374 0.352 0.643 0.463 0.81v0c-0.867 0.21-1.729 0.473-2.586 0.79-0.853 0.308-1.708 0.654-2.564 1.038v0c-0.993 0.445-1.944 0.909-2.853 1.391-0.912 0.476-1.763 0.98-2.552 1.513zM72.859 21.104v0c0.139 0.31 0.287 0.549 0.445 0.717 0.16 0.174 0.352 0.278 0.575 0.312 0.227 0.04 0.503 0.017 0.83-0.07 0.32-0.084 0.713-0.23 1.178-0.439v0c0.465-0.209 0.839-0.406 1.121-0.591 0.282-0.186 0.483-0.377 0.604-0.573 0.124-0.19 0.174-0.402 0.15-0.637-0.021-0.229-0.101-0.499-0.24-0.81v0c-0.164-0.366-0.463-0.776-0.898-1.229-0.428-0.456-0.903-0.925-1.424-1.407-0.519-0.475-1.045-0.951-1.579-1.427-0.531-0.47-0.972-0.913-1.323-1.33v0c0.059 0.547 0.087 1.176 0.085 1.884 0 0.715 0.008 1.423 0.025 2.125 0.019 0.707 0.056 1.372 0.112 1.995 0.062 0.621 0.175 1.114 0.339 1.48z" fill="#001f3f" data-fill-palette-color="primary"></path><path d="M147.296 24.502v0c0.176-0.245 0.36-0.55 0.552-0.912 0.201-0.367 0.382-0.756 0.542-1.169v0c0.145-0.374 0.26-0.753 0.343-1.136 0.092-0.387 0.16-0.722 0.204-1.004v0c0.545 0.212 1.016 0.351 1.414 0.418 0.401 0.076 0.758 0.068 1.07-0.021 0.304-0.086 0.568-0.261 0.794-0.523 0.222-0.271 0.423-0.638 0.603-1.101v0c0.355-0.913 0.633-1.702 0.833-2.368 0.201-0.666 0.339-1.229 0.416-1.688 0.068-0.455 0.075-0.821 0.021-1.097-0.053-0.276-0.161-0.478-0.322-0.607v0c0.221 0.013 0.435-0.039 0.641-0.156 0.204-0.111 0.427-0.338 0.67-0.681 0.237-0.346 0.499-0.824 0.787-1.434 0.291-0.617 0.63-1.422 1.017-2.417v0c0.168-0.431 0.241-0.807 0.22-1.129-0.014-0.319-0.106-0.599-0.275-0.84-0.167-0.247-0.4-0.462-0.702-0.645-0.304-0.176-0.658-0.343-1.064-0.501v0l-0.323-0.126c0.158-0.238 0.329-0.518 0.513-0.84 0.19-0.32 0.358-0.667 0.503-1.042v0c0.155-0.399 0.288-0.815 0.397-1.246 0.116-0.429 0.192-0.794 0.228-1.093v0c0.18 0.157 0.476 0.353 0.889 0.586 0.41 0.24 0.887 0.495 1.432 0.765 0.548 0.279 1.139 0.56 1.773 0.843 0.64 0.286 1.268 0.548 1.883 0.786v0c0.615 0.239 1.252 0.468 1.911 0.688 0.652 0.217 1.275 0.408 1.867 0.573 0.584 0.169 1.111 0.304 1.582 0.408 0.468 0.109 0.825 0.168 1.07 0.175v0c-0.169 0.248-0.356 0.569-0.561 0.964-0.211 0.392-0.394 0.788-0.549 1.187v0c-0.145 0.374-0.259 0.742-0.342 1.104-0.076 0.364-0.139 0.686-0.189 0.966v0l-0.305-0.118c-0.368-0.143-0.72-0.251-1.056-0.324-0.345-0.069-0.666-0.069-0.962-0.002-0.3 0.058-0.573 0.197-0.818 0.416-0.245 0.218-0.452 0.543-0.62 0.973v0c-0.291 0.748-0.528 1.385-0.711 1.913-0.174 0.523-0.31 0.985-0.407 1.385v0c0.574 0.362 1.245 0.721 2.011 1.077 0.77 0.365 1.577 0.712 2.42 1.039v0c0.843 0.328 1.665 0.615 2.467 0.861 0.811 0.242 1.547 0.423 2.208 0.541v0c0.202-0.352 0.415-0.787 0.639-1.305 0.23-0.516 0.485-1.136 0.766-1.858v0c0.168-0.431 0.241-0.807 0.22-1.129-0.014-0.319-0.106-0.599-0.275-0.841-0.167-0.247-0.4-0.462-0.701-0.645-0.31-0.179-0.664-0.346-1.064-0.501v0l-0.323-0.125c0.158-0.238 0.329-0.518 0.513-0.841 0.19-0.32 0.358-0.667 0.503-1.041v0c0.155-0.399 0.288-0.815 0.397-1.246 0.109-0.432 0.186-0.796 0.228-1.093v0c0.18 0.157 0.476 0.353 0.888 0.586 0.41 0.24 0.887 0.495 1.432 0.764 0.548 0.279 1.139 0.56 1.774 0.843 0.64 0.286 1.268 0.548 1.883 0.787v0c0.615 0.239 1.252 0.468 1.91 0.688 0.652 0.217 1.275 0.408 1.868 0.573 0.584 0.169 1.111 0.304 1.581 0.407 0.468 0.109 0.825 0.168 1.071 0.176v0c-0.169 0.248-0.359 0.568-0.571 0.96-0.205 0.395-0.384 0.792-0.54 1.191v0c-0.145 0.374-0.259 0.742-0.341 1.104-0.076 0.364-0.139 0.686-0.19 0.966v0l-0.304-0.119c-0.368-0.143-0.72-0.251-1.056-0.323-0.345-0.069-0.666-0.069-0.963-0.002-0.3 0.058-0.573 0.197-0.818 0.415-0.245 0.218-0.452 0.543-0.619 0.974v0c-0.387 0.995-0.681 1.818-0.884 2.469-0.2 0.645-0.329 1.174-0.388 1.59-0.053 0.417-0.042 0.735 0.034 0.954 0.073 0.225 0.195 0.408 0.367 0.548v0c-0.206-0.014-0.425 0.061-0.657 0.226-0.226 0.168-0.464 0.443-0.715 0.827-0.26 0.388-0.538 0.896-0.834 1.525-0.302 0.627-0.631 1.396-0.986 2.309v0c-0.18 0.463-0.27 0.873-0.27 1.23 0.008 0.354 0.102 0.667 0.28 0.941 0.182 0.282 0.443 0.53 0.784 0.743 0.338 0.219 0.748 0.422 1.229 0.609v0c-0.152 0.24-0.328 0.533-0.527 0.878-0.191 0.342-0.359 0.699-0.505 1.074v0c-0.16 0.412-0.293 0.82-0.4 1.223-0.097 0.4-0.167 0.749-0.209 1.046v0c-0.286-0.184-0.657-0.394-1.112-0.63-0.456-0.236-0.958-0.482-1.508-0.739-0.549-0.257-1.119-0.508-1.71-0.752-0.595-0.253-1.168-0.487-1.719-0.702v0c-0.551-0.214-1.132-0.429-1.742-0.644-0.601-0.219-1.19-0.419-1.769-0.6-0.579-0.181-1.116-0.339-1.611-0.474-0.495-0.134-0.907-0.229-1.236-0.283v0c0.169-0.248 0.353-0.552 0.552-0.913 0.201-0.367 0.382-0.756 0.542-1.168v0c0.145-0.374 0.26-0.753 0.343-1.136 0.092-0.387 0.16-0.722 0.205-1.004v0c0.545 0.212 1.016 0.351 1.413 0.418 0.401 0.076 0.758 0.068 1.07-0.022 0.304-0.086 0.568-0.261 0.794-0.523 0.222-0.271 0.423-0.638 0.603-1.1v0c0.5-1.287 0.856-2.352 1.068-3.197v0c-0.565-0.366-1.224-0.735-1.977-1.108-0.752-0.373-1.553-0.724-2.402-1.054v0c-0.811-0.315-1.632-0.598-2.461-0.848-0.823-0.247-1.572-0.432-2.247-0.556v0c-0.406 0.762-0.863 1.798-1.373 3.11v0c-0.18 0.463-0.267 0.874-0.261 1.234 0.002 0.351 0.092 0.663 0.27 0.937 0.182 0.282 0.443 0.53 0.784 0.743 0.338 0.219 0.748 0.422 1.23 0.609v0c-0.152 0.24-0.328 0.533-0.528 0.879-0.191 0.342-0.359 0.699-0.505 1.073v0c-0.16 0.412-0.29 0.821-0.389 1.227-0.103 0.398-0.177 0.745-0.22 1.042v0c-0.286-0.184-0.657-0.394-1.112-0.629-0.456-0.236-0.958-0.482-1.507-0.74-0.549-0.257-1.119-0.508-1.71-0.752-0.595-0.253-1.168-0.487-1.72-0.701v0c-0.551-0.214-1.132-0.429-1.741-0.645-0.601-0.219-1.19-0.419-1.769-0.6-0.579-0.181-1.116-0.339-1.611-0.473-0.495-0.134-0.907-0.229-1.236-0.284z" fill="#001f3f" data-fill-palette-color="primary"></path><path d="M217.472 72.41v0c0.369 0.087 1.019 0.033 1.948-0.162 0.929-0.195 2.136-0.607 3.62-1.237v0c0.676-0.287 1.154-0.597 1.433-0.93 0.28-0.333 0.407-0.694 0.383-1.082v0c0.13 0.167 0.321 0.277 0.574 0.333 0.255 0.062 0.54 0.081 0.855 0.057 0.322-0.026 0.657-0.087 1.008-0.184 0.357-0.1 0.71-0.224 1.061-0.372v0c0.92-0.391 1.704-0.815 2.351-1.275 0.644-0.45 1.059-0.882 1.246-1.294v0l0.056 0.132c0.154 0.363 0.407 0.732 0.758 1.108 0.349 0.369 0.75 0.731 1.203 1.085 0.457 0.345 0.941 0.668 1.452 0.968 0.511 0.3 1.014 0.552 1.507 0.756 0.49 0.198 0.945 0.338 1.364 0.419 0.418 0.081 0.754 0.079 1.006-0.006v0c-0.026 0.218-0.013 0.526 0.038 0.926 0.051 0.399 0.138 0.865 0.26 1.396 0.119 0.541 0.283 1.128 0.493 1.763 0.204 0.637 0.448 1.291 0.733 1.961v0c0.287 0.676 0.589 1.309 0.905 1.899 0.31 0.592 0.618 1.116 0.922 1.57 0.3 0.464 0.576 0.853 0.827 1.167 0.252 0.314 0.463 0.535 0.636 0.661v0c-0.234 0.129-0.467 0.372-0.699 0.729-0.233 0.357-0.448 0.781-0.647 1.271-0.198 0.49-0.367 1.024-0.506 1.6-0.14 0.576-0.242 1.152-0.309 1.727-0.063 0.566-0.081 1.106-0.055 1.619 0.026 0.514 0.116 0.952 0.27 1.315v0l0.052 0.122c-0.424-0.145-1.022-0.146-1.796-0.002-0.777 0.153-1.626 0.424-2.547 0.815v0c-0.351 0.149-0.687 0.314-1.009 0.494-0.313 0.185-0.589 0.387-0.828 0.607-0.236 0.211-0.421 0.426-0.557 0.646-0.136 0.22-0.187 0.438-0.155 0.653v0c-0.265-0.294-0.615-0.456-1.048-0.486-0.434-0.03-0.989 0.098-1.665 0.386v0c-1.484 0.63-2.617 1.214-3.4 1.753-0.786 0.533-1.277 0.959-1.474 1.279v0c-0.307-0.549-0.756-1.101-1.346-1.656-0.59-0.555-1.234-1.046-1.933-1.473-0.692-0.43-1.397-0.767-2.112-1.01-0.714-0.236-1.349-0.314-1.905-0.233v0c0.022-0.209-0.001-0.517-0.071-0.923-0.069-0.407-0.177-0.878-0.323-1.414-0.146-0.536-0.332-1.122-0.558-1.758-0.228-0.642-0.486-1.301-0.772-1.977v0c-0.284-0.67-0.578-1.31-0.881-1.92-0.303-0.61-0.597-1.154-0.881-1.631-0.284-0.478-0.548-0.883-0.793-1.215-0.244-0.332-0.449-0.563-0.615-0.692v0c0.448-0.338 0.833-0.848 1.156-1.532 0.326-0.677 0.574-1.415 0.746-2.212 0.178-0.799 0.272-1.604 0.283-2.414 0.008-0.816-0.079-1.525-0.261-2.127zM221.835 84.83v0c0.255 0.601 0.599 1.116 1.033 1.545 0.424 0.426 1.002 0.708 1.734 0.849 0.729 0.134 1.641 0.098 2.735-0.108 1.088-0.203 2.431-0.644 4.027-1.321v0c1.246-0.529 2.289-1.038 3.13-1.528 0.837-0.481 1.517-0.951 2.04-1.409 0.516-0.455 0.895-0.893 1.137-1.314 0.246-0.43 0.394-0.839 0.443-1.229 0.055-0.393 0.038-0.773-0.053-1.142-0.093-0.359-0.216-0.717-0.367-1.074v0c-0.149-0.351-0.321-0.687-0.517-1.01-0.2-0.314-0.461-0.591-0.785-0.831-0.314-0.236-0.71-0.411-1.187-0.526-0.474-0.124-1.052-0.155-1.736-0.095-0.692 0.057-1.504 0.217-2.434 0.479-0.937 0.265-2.028 0.661-3.273 1.19v0c-1.596 0.677-2.846 1.337-3.748 1.979-0.909 0.644-1.567 1.278-1.975 1.901-0.41 0.617-0.608 1.23-0.594 1.837 0.008 0.61 0.138 1.212 0.39 1.807z" fill="#001f3f" data-fill-palette-color="primary"></path><path d="M5.974 160.123v0c0.297-0.042 0.652-0.113 1.066-0.213 0.407-0.098 0.819-0.228 1.238-0.389v0c0.381-0.147 0.744-0.319 1.09-0.518 0.349-0.192 0.645-0.369 0.89-0.529v0c0.191 0.495 0.396 0.915 0.616 1.26 0.218 0.339 0.468 0.6 0.75 0.783 0.275 0.185 0.593 0.282 0.953 0.289 0.366 0.005 0.784-0.083 1.253-0.264v0c0.92-0.354 1.701-0.684 2.341-0.989 0.64-0.305 1.156-0.584 1.547-0.836 0.395-0.261 0.675-0.508 0.842-0.739 0.175-0.228 0.251-0.446 0.228-0.656v0c0.148 0.176 0.319 0.307 0.512 0.393 0.202 0.09 0.492 0.113 0.868 0.07 0.386-0.039 0.892-0.154 1.518-0.344 0.626-0.19 1.444-0.479 2.454-0.868v0c0.47-0.181 0.839-0.396 1.107-0.645 0.262-0.247 0.433-0.531 0.513-0.853 0.086-0.325 0.097-0.686 0.031-1.083-0.068-0.404-0.197-0.853-0.388-1.348v0c0.289-0.045 0.627-0.114 1.014-0.205 0.39-0.085 0.775-0.2 1.157-0.347v0c0.419-0.161 0.812-0.342 1.179-0.541 0.374-0.202 0.685-0.388 0.934-0.556v0c-0.003 0.162 0.05 0.462 0.16 0.9 0.104 0.441 0.246 0.951 0.426 1.53 0.179 0.579 0.38 1.205 0.602 1.878 0.222 0.672 0.44 1.332 0.653 1.978 0.219 0.644 0.43 1.248 0.631 1.812 0.2 0.557 0.369 1.016 0.509 1.378v0c0.352 0.914 0.705 1.802 1.058 2.664 0.356 0.868 0.698 1.662 1.026 2.381 0.321 0.722 0.629 1.339 0.922 1.853 0.289 0.523 0.535 0.887 0.737 1.093v0c-0.224 0.101-0.434 0.284-0.63 0.549-0.197 0.265-0.371 0.58-0.522 0.944-0.155 0.373-0.29 0.771-0.404 1.194-0.114 0.423-0.202 0.839-0.262 1.249-0.065 0.418-0.093 0.808-0.085 1.169 0.008 0.361 0.052 0.665 0.132 0.911v0c-0.169-0.022-0.401-0.01-0.696 0.039-0.291 0.039-0.616 0.102-0.976 0.19-0.353 0.085-0.715 0.188-1.084 0.308-0.371 0.114-0.722 0.234-1.052 0.361v0c-0.704 0.271-1.347 0.562-1.927 0.873-0.582 0.304-0.997 0.61-1.243 0.916v0c-0.265-0.423-0.616-0.816-1.055-1.179-0.445-0.361-0.926-0.674-1.444-0.941v0c-0.119 0.731-0.16 1.486-0.123 2.265 0.044 0.777 0.138 1.484 0.281 2.122v0c-0.18-0.033-0.397-0.037-0.649-0.012-0.255 0.018-0.533 0.063-0.833 0.135-0.3 0.072-0.613 0.159-0.938 0.262-0.329 0.112-0.651 0.229-0.969 0.351v0c-0.33 0.127-0.677 0.268-1.039 0.422-0.361 0.161-0.698 0.327-1.011 0.499-0.319 0.174-0.604 0.342-0.855 0.504-0.255 0.171-0.429 0.325-0.521 0.463v0c-0.132-0.306-0.33-0.638-0.592-0.997-0.268-0.356-0.573-0.712-0.914-1.069-0.345-0.348-0.712-0.684-1.099-1.008-0.387-0.325-0.78-0.607-1.178-0.847-0.39-0.236-0.765-0.416-1.126-0.54-0.357-0.132-0.672-0.175-0.946-0.128v0c0.012-0.158-0.057-0.507-0.206-1.046-0.147-0.534-0.346-1.182-0.596-1.946-0.253-0.77-0.544-1.612-0.874-2.527-0.334-0.906-0.677-1.816-1.029-2.729v0c-0.134-0.349-0.315-0.808-0.541-1.377-0.233-0.566-0.489-1.175-0.768-1.825-0.273-0.653-0.552-1.31-0.836-1.973-0.278-0.665-0.543-1.278-0.795-1.837-0.249-0.553-0.469-1.018-0.658-1.397-0.183-0.381-0.308-0.61-0.374-0.687zM23.581 164.406v0c0.002 0.174 0.014 0.348 0.037 0.522 0.023 0.173 0.061 0.366 0.114 0.579 0.053 0.213 0.124 0.455 0.214 0.726 0.087 0.265 0.2 0.575 0.336 0.931v0c0.21 0.546 0.466 0.965 0.768 1.257 0.304 0.298 0.638 0.494 1.002 0.587 0.364 0.093 0.755 0.106 1.174 0.039 0.425-0.069 0.863-0.19 1.314-0.363v0c0.381-0.147 0.74-0.311 1.078-0.492 0.345-0.184 0.622-0.418 0.833-0.703 0.211-0.285 0.334-0.628 0.37-1.028 0.033-0.406-0.066-0.911-0.299-1.514v0c-0.191-0.495-0.416-0.977-0.676-1.444-0.252-0.464-0.546-0.868-0.882-1.213v0c-0.319 0.079-0.667 0.18-1.042 0.303-0.375 0.123-0.753 0.257-1.134 0.404v0c-0.584 0.225-1.152 0.462-1.705 0.711-0.555 0.243-1.056 0.476-1.502 0.698zM13.685 168.172v0c0.066 0.587 0.175 1.175 0.33 1.764 0.16 0.587 0.369 1.213 0.625 1.88v0c0.242 0.628 0.531 1.114 0.868 1.459 0.343 0.342 0.714 0.578 1.114 0.707 0.409 0.134 0.84 0.176 1.294 0.125 0.458-0.06 0.928-0.182 1.41-0.368v0c0.432-0.166 0.832-0.357 1.201-0.571 0.371-0.209 0.671-0.481 0.899-0.817 0.224-0.327 0.35-0.729 0.378-1.205 0.034-0.479-0.082-1.065-0.349-1.757v0c-0.352-0.914-0.67-1.637-0.955-2.168-0.291-0.529-0.599-0.961-0.924-1.295v0c-0.394 0.093-0.821 0.214-1.282 0.363-0.458 0.154-0.934 0.327-1.429 0.517v0c-0.571 0.22-1.128 0.449-1.67 0.687-0.549 0.24-1.052 0.467-1.51 0.679z" fill="#001f3f" data-fill-palette-color="primary"></path><path d="M60.194 231.039v0c0.182-0.239 0.376-0.547 0.581-0.924 0.215-0.38 0.416-0.779 0.603-1.194v0c0.172-0.385 0.32-0.755 0.441-1.11 0.125-0.346 0.218-0.662 0.279-0.948v0c0.561 0.229 1.074 0.339 1.539 0.332 0.463-0.001 0.867-0.055 1.213-0.161v0c0.432-0.283 0.895-0.609 1.387-0.977 0.489-0.377 0.959-0.777 1.41-1.201 0.457-0.421 0.87-0.862 1.241-1.322 0.376-0.457 0.665-0.909 0.865-1.356v0c0.083-0.186 0.138-0.382 0.162-0.587 0.028-0.211-0.012-0.363-0.12-0.456v0c0.362 0.058 0.791-0.037 1.289-0.283 0.489-0.243 1.013-0.582 1.574-1.017 0.551-0.431 1.114-0.939 1.688-1.523 0.566-0.581 1.105-1.185 1.617-1.813 0.518-0.625 0.982-1.252 1.39-1.881 0.409-0.629 0.731-1.207 0.968-1.735v0c0.081-0.18 0.151-0.361 0.21-0.543 0.053-0.185 0.106-0.336 0.158-0.454v0c0.022-0.05 0.046-0.095 0.072-0.136 0.026-0.041 0.058-0.104 0.097-0.191v0c0.204 0.211 0.473 0.432 0.809 0.664 0.342 0.235 0.734 0.482 1.178 0.74 0.437 0.255 0.915 0.511 1.434 0.766 0.51 0.258 1.051 0.515 1.621 0.771v0c0.496 0.222 1.008 0.437 1.534 0.643 0.523 0.212 1.038 0.402 1.545 0.569 0.5 0.164 0.976 0.307 1.429 0.428 0.446 0.118 0.831 0.19 1.155 0.215v0l-0.029 0.066-0.063 0.139c-0.056 0.124-0.135 0.267-0.237 0.43-0.105 0.169-0.205 0.359-0.3 0.57v0c-0.222 0.496-0.439 1.096-0.65 1.799-0.204 0.706-0.386 1.452-0.544 2.238-0.158 0.786-0.281 1.584-0.368 2.394-0.085 0.804-0.118 1.56-0.101 2.269 0.015 0.715 0.095 1.343 0.24 1.885 0.142 0.548 0.365 0.957 0.669 1.227v0c-0.171-0.017-0.323 0.038-0.454 0.165-0.125 0.13-0.239 0.31-0.343 0.54v0c-0.2 0.447-0.349 0.961-0.446 1.544-0.103 0.58-0.16 1.18-0.17 1.801-0.016 0.619 0 1.23 0.051 1.834 0.044 0.601 0.107 1.151 0.189 1.649v0c0.12 0.165 0.269 0.355 0.448 0.57 0.176 0.206 0.366 0.414 0.57 0.624 0.207 0.204 0.417 0.392 0.631 0.562 0.223 0.167 0.443 0.299 0.661 0.397v0c-0.173 0.236-0.346 0.515-0.522 0.839-0.184 0.327-0.362 0.683-0.534 1.069v0c-0.186 0.416-0.35 0.831-0.491 1.244-0.144 0.405-0.245 0.755-0.302 1.049v0c-0.365-0.216-0.788-0.461-1.269-0.736-0.489-0.271-1.013-0.558-1.57-0.86-0.56-0.296-1.149-0.597-1.764-0.902-0.609-0.303-1.224-0.593-1.845-0.871v0c-1.142-0.512-2.24-0.963-3.295-1.354-1.055-0.391-1.965-0.679-2.731-0.865v0c0.112-0.166 0.269-0.442 0.472-0.828 0.2-0.38 0.408-0.812 0.625-1.296v0c0.089-0.199 0.178-0.405 0.266-0.619 0.082-0.217 0.157-0.418 0.226-0.603 0.077-0.189 0.138-0.359 0.184-0.51 0.045-0.151 0.08-0.262 0.104-0.333v0c0.192 0.086 0.397 0.17 0.614 0.252 0.226 0.079 0.454 0.144 0.684 0.195 0.224 0.048 0.452 0.08 0.684 0.094 0.226 0.012 0.442-0.014 0.65-0.078v0c0.167-0.439 0.26-0.837 0.278-1.194 0.021-0.363-0.085-0.716-0.319-1.059-0.237-0.352-0.625-0.709-1.164-1.07-0.548-0.357-1.293-0.747-2.237-1.169v0c-0.85-0.381-1.568-0.665-2.155-0.854-0.593-0.191-1.103-0.274-1.531-0.25-0.432 0.015-0.799 0.145-1.102 0.389-0.309 0.241-0.603 0.613-0.88 1.115v0c0.106 0.196 0.254 0.382 0.444 0.556 0.19 0.175 0.395 0.341 0.615 0.499 0.22 0.158 0.447 0.301 0.68 0.428 0.236 0.121 0.451 0.224 0.643 0.311v0c-0.049 0.06-0.114 0.154-0.193 0.282-0.076 0.137-0.162 0.296-0.258 0.477-0.096 0.181-0.196 0.378-0.299 0.592-0.101 0.208-0.194 0.409-0.281 0.601v0c-0.217 0.484-0.397 0.929-0.541 1.333-0.153 0.408-0.254 0.709-0.304 0.904v0c-0.746-0.513-1.524-0.988-2.335-1.426-0.813-0.431-1.654-0.841-2.522-1.231v0c-1.012-0.453-2.005-0.865-2.979-1.234-0.977-0.363-1.934-0.665-2.869-0.906zM75.858 223.695v0c-0.139 0.31-0.22 0.583-0.244 0.818-0.023 0.235 0.028 0.452 0.155 0.651 0.127 0.199 0.333 0.388 0.618 0.567 0.282 0.186 0.659 0.384 1.13 0.596v0c0.472 0.211 0.874 0.362 1.206 0.451 0.324 0.093 0.599 0.119 0.826 0.079 0.233-0.037 0.429-0.143 0.589-0.317 0.166-0.171 0.319-0.412 0.458-0.722v0c0.17-0.379 0.277-0.885 0.323-1.521 0.052-0.632 0.086-1.306 0.102-2.022 0.009-0.719 0.015-1.439 0.017-2.161 0.003-0.722 0.041-1.356 0.116-1.904v0c-0.378 0.412-0.836 0.859-1.372 1.341-0.537 0.482-1.067 0.968-1.591 1.456-0.524 0.488-1.002 0.963-1.433 1.426-0.431 0.463-0.731 0.883-0.9 1.262z" fill="#001f3f" data-fill-palette-color="primary"></path><path d="M153.768 244.529v0c-0.042-0.297-0.114-0.652-0.216-1.065-0.099-0.406-0.23-0.819-0.392-1.238v0c-0.148-0.38-0.321-0.743-0.521-1.089-0.193-0.348-0.37-0.644-0.531-0.888v0c0.545-0.211 0.993-0.429 1.345-0.653 0.351-0.224 0.611-0.474 0.78-0.751 0.172-0.271 0.249-0.581 0.23-0.931-0.015-0.359-0.114-0.773-0.296-1.242v0c-0.356-0.919-0.688-1.699-0.994-2.339-0.306-0.64-0.59-1.154-0.849-1.541-0.256-0.397-0.5-0.678-0.732-0.844-0.228-0.174-0.447-0.25-0.657-0.226v0c0.176-0.148 0.3-0.335 0.374-0.561 0.076-0.219 0.086-0.54 0.031-0.964-0.055-0.424-0.184-0.964-0.389-1.621-0.204-0.658-0.501-1.49-0.892-2.499v0c-0.17-0.437-0.372-0.771-0.607-1.001-0.233-0.223-0.494-0.37-0.783-0.44-0.296-0.068-0.62-0.066-0.972 0.005-0.343 0.075-0.721 0.192-1.133 0.352v0l-0.323 0.125c-0.046-0.288-0.11-0.614-0.192-0.976-0.078-0.371-0.191-0.746-0.339-1.127v0c-0.157-0.406-0.343-0.808-0.555-1.206-0.213-0.399-0.404-0.722-0.574-0.971v0c0.239-0.005 0.592-0.062 1.061-0.17 0.471-0.102 1.006-0.237 1.605-0.404 0.597-0.173 1.228-0.37 1.893-0.592 0.674-0.218 1.325-0.448 1.953-0.691v0c0.621-0.241 1.251-0.507 1.889-0.798 0.641-0.285 1.24-0.565 1.797-0.84 0.555-0.281 1.044-0.543 1.467-0.787 0.426-0.238 0.731-0.437 0.917-0.597v0c0.042 0.297 0.119 0.665 0.231 1.103 0.112 0.438 0.246 0.86 0.404 1.266v0c0.148 0.38 0.317 0.734 0.509 1.061 0.19 0.32 0.362 0.604 0.516 0.85v0l-0.314 0.122c-0.368 0.143-0.703 0.302-1.007 0.478-0.301 0.182-0.545 0.401-0.73 0.655-0.179 0.252-0.286 0.541-0.32 0.868-0.038 0.336 0.028 0.722 0.198 1.159v0c0.293 0.754 0.554 1.39 0.783 1.907 0.223 0.519 0.438 0.961 0.645 1.325v0c0.674-0.123 1.422-0.311 2.243-0.564 0.819-0.259 1.656-0.555 2.512-0.886v0c0.856-0.332 1.669-0.68 2.439-1.044 0.774-0.373 1.449-0.74 2.023-1.102v0c-0.09-0.403-0.226-0.875-0.407-1.418-0.188-0.54-0.424-1.178-0.709-1.913v0c-0.17-0.437-0.372-0.771-0.607-1.001-0.233-0.223-0.494-0.37-0.783-0.44-0.29-0.07-0.61-0.07-0.963 0.001-0.349 0.077-0.727 0.194-1.132 0.352v0l-0.333 0.129c-0.046-0.288-0.11-0.614-0.192-0.976-0.078-0.371-0.191-0.746-0.339-1.127v0c-0.157-0.406-0.343-0.808-0.556-1.206-0.207-0.401-0.398-0.725-0.573-0.971v0c0.239-0.005 0.592-0.062 1.061-0.17 0.471-0.102 1.006-0.237 1.605-0.404 0.597-0.173 1.231-0.372 1.902-0.595 0.668-0.215 1.316-0.444 1.944-0.688v0c0.628-0.243 1.261-0.511 1.899-0.802 0.634-0.282 1.23-0.561 1.787-0.836 0.555-0.281 1.044-0.543 1.467-0.787 0.426-0.238 0.735-0.438 0.927-0.6v0c0.036 0.3 0.11 0.669 0.221 1.106 0.118 0.436 0.256 0.856 0.413 1.262v0c0.148 0.38 0.314 0.735 0.5 1.065 0.19 0.32 0.365 0.602 0.525 0.846v0l-0.313 0.122c-0.374 0.145-0.713 0.306-1.017 0.482-0.301 0.182-0.542 0.4-0.721 0.651-0.179 0.252-0.289 0.542-0.329 0.872-0.031 0.333 0.038 0.718 0.207 1.156v0c0.391 1.008 0.733 1.824 1.026 2.447 0.293 0.623 0.558 1.111 0.797 1.463 0.245 0.35 0.469 0.58 0.672 0.691 0.212 0.115 0.43 0.169 0.654 0.162v0c-0.164 0.122-0.275 0.325-0.332 0.61-0.053 0.276-0.044 0.648 0.028 1.116 0.07 0.462 0.207 1.032 0.412 1.711 0.211 0.677 0.495 1.475 0.851 2.394v0c0.182 0.469 0.398 0.838 0.648 1.106 0.241 0.264 0.523 0.436 0.845 0.514 0.325 0.086 0.689 0.094 1.093 0.025 0.404-0.069 0.853-0.199 1.347-0.391v0c0.046 0.288 0.112 0.628 0.198 1.018 0.092 0.387 0.212 0.771 0.359 1.151v0c0.162 0.418 0.341 0.812 0.535 1.182 0.203 0.373 0.392 0.683 0.567 0.929v0c-0.348 0.062-0.773 0.161-1.274 0.297-0.502 0.136-1.045 0.296-1.63 0.479-0.585 0.183-1.186 0.383-1.802 0.6-0.614 0.223-1.199 0.443-1.757 0.66v0c-0.558 0.216-1.139 0.449-1.743 0.698-0.601 0.255-1.18 0.512-1.736 0.771-0.556 0.259-1.065 0.508-1.527 0.745-0.462 0.238-0.836 0.448-1.122 0.633v0c-0.036-0.3-0.108-0.655-0.216-1.065-0.099-0.406-0.23-0.819-0.392-1.238v0c-0.148-0.38-0.321-0.743-0.521-1.089-0.193-0.348-0.37-0.644-0.531-0.888v0c0.552-0.214 1-0.431 1.345-0.653 0.351-0.224 0.611-0.474 0.78-0.751 0.172-0.271 0.252-0.583 0.239-0.935-0.021-0.356-0.123-0.769-0.305-1.238v0c-0.506-1.306-0.968-2.345-1.384-3.118v0c-0.673 0.108-1.419 0.28-2.238 0.518-0.813 0.235-1.654 0.521-2.523 0.858v0c-0.824 0.32-1.63 0.668-2.417 1.047-0.784 0.384-1.47 0.76-2.058 1.126v0c0.213 0.851 0.577 1.939 1.091 3.264v0c0.182 0.469 0.398 0.838 0.647 1.105 0.247 0.261 0.532 0.432 0.855 0.511 0.325 0.086 0.689 0.094 1.093 0.025 0.397-0.067 0.843-0.196 1.337-0.387v0c0.053 0.286 0.122 0.624 0.208 1.014 0.086 0.39 0.202 0.775 0.349 1.155v0c0.162 0.418 0.344 0.811 0.545 1.178 0.203 0.373 0.389 0.684 0.558 0.932v0c-0.342 0.06-0.763 0.157-1.265 0.294-0.502 0.136-1.045 0.296-1.63 0.479-0.585 0.183-1.186 0.383-1.802 0.6-0.614 0.223-1.199 0.443-1.757 0.66v0c-0.564 0.219-1.148 0.453-1.752 0.701-0.601 0.255-1.177 0.511-1.727 0.768-0.556 0.259-1.068 0.509-1.536 0.749-0.462 0.238-0.833 0.447-1.113 0.629z" fill="#001f3f" data-fill-palette-color="primary"></path><path d="M225.825 183.109v0c-0.196-0.32-0.691-0.753-1.486-1.3-0.795-0.546-1.946-1.141-3.453-1.784v0c-0.682-0.291-1.241-0.419-1.677-0.383-0.44 0.027-0.793 0.186-1.059 0.48v0c0.026-0.218-0.028-0.437-0.163-0.658-0.132-0.227-0.319-0.447-0.561-0.66-0.239-0.22-0.521-0.426-0.846-0.617-0.319-0.188-0.657-0.358-1.013-0.51v0c-0.932-0.398-1.791-0.672-2.577-0.822-0.786-0.151-1.395-0.152-1.829-0.004v0l0.053-0.122c0.157-0.369 0.251-0.813 0.28-1.333 0.03-0.52 0.009-1.068-0.063-1.646-0.062-0.581-0.166-1.161-0.31-1.741-0.142-0.586-0.309-1.13-0.501-1.633-0.195-0.497-0.411-0.926-0.649-1.286-0.235-0.367-0.474-0.613-0.716-0.738v0c0.175-0.132 0.39-0.359 0.644-0.679 0.261-0.317 0.545-0.706 0.853-1.167 0.304-0.469 0.616-1.001 0.937-1.596 0.323-0.601 0.63-1.243 0.921-1.925v0c0.291-0.682 0.54-1.344 0.748-1.987 0.208-0.643 0.376-1.237 0.505-1.781 0.12-0.54 0.204-1.015 0.252-1.423 0.055-0.405 0.069-0.717 0.045-0.935v0c0.258 0.088 0.601 0.09 1.028 0.006 0.425-0.077 0.885-0.221 1.382-0.43 0.493-0.203 1.001-0.456 1.521-0.759 0.521-0.303 1.012-0.629 1.472-0.98 0.466-0.348 0.877-0.713 1.232-1.094 0.355-0.381 0.611-0.756 0.769-1.125v0l0.056-0.131c0.193 0.415 0.615 0.854 1.267 1.317 0.65 0.47 1.441 0.903 2.373 1.301v0c0.356 0.152 0.713 0.278 1.069 0.379 0.363 0.103 0.706 0.165 1.031 0.185 0.321 0.026 0.61 0.009 0.865-0.052 0.253-0.055 0.45-0.17 0.591-0.347v0c-0.031 0.401 0.097 0.77 0.382 1.106 0.276 0.34 0.756 0.655 1.438 0.946v0c1.507 0.643 2.733 1.063 3.677 1.259 0.944 0.196 1.601 0.251 1.97 0.164v0c-0.182 0.617-0.271 1.337-0.267 2.16 0.013 0.819 0.108 1.636 0.285 2.45 0.174 0.806 0.423 1.556 0.748 2.249 0.328 0.687 0.72 1.206 1.177 1.556v0c-0.172 0.126-0.382 0.358-0.63 0.696-0.248 0.338-0.515 0.749-0.803 1.232-0.288 0.483-0.585 1.033-0.892 1.649-0.307 0.616-0.606 1.264-0.897 1.946v0c-0.291 0.682-0.554 1.35-0.789 2.004-0.232 0.648-0.423 1.243-0.573 1.785-0.15 0.542-0.261 1.02-0.334 1.432-0.073 0.413-0.095 0.725-0.067 0.936v0c-0.569-0.088-1.215-0.012-1.938 0.227-0.726 0.245-1.439 0.583-2.141 1.016-0.711 0.436-1.367 0.932-1.967 1.489-0.597 0.566-1.053 1.125-1.37 1.678zM231.833 171.189v0c0.256-0.6 0.393-1.207 0.411-1.821 0.012-0.616-0.191-1.242-0.607-1.878-0.413-0.627-1.077-1.269-1.995-1.927-0.92-0.651-2.183-1.32-3.79-2.006v0c-1.27-0.542-2.376-0.947-3.319-1.217-0.949-0.272-1.772-0.438-2.47-0.499-0.692-0.059-1.278-0.028-1.759 0.092-0.483 0.127-0.889 0.308-1.219 0.544-0.324 0.239-0.584 0.52-0.781 0.843-0.203 0.32-0.381 0.658-0.533 1.014v0c-0.155 0.363-0.277 0.728-0.368 1.096-0.097 0.365-0.119 0.748-0.068 1.147 0.058 0.402 0.209 0.818 0.455 1.248 0.243 0.436 0.625 0.884 1.146 1.343 0.528 0.462 1.218 0.941 2.07 1.438 0.846 0.494 1.904 1.012 3.174 1.554v0c1.607 0.686 2.966 1.133 4.075 1.34 1.107 0.214 2.029 0.252 2.767 0.116 0.747-0.14 1.339-0.427 1.776-0.861 0.431-0.437 0.775-0.959 1.035-1.566z" fill="#001f3f" data-fill-palette-color="primary"></path><path d="M0.722 125.775c0-5.361 4.346-9.706 9.706-9.706 5.361 0 9.706 4.346 9.706 9.706 0 5.361-4.346 9.706-9.706 9.706-5.361 0-9.706-4.346-9.706-9.706z" fill="#001f3f" data-fill-palette-color="primary"></path><path d="M226.26 125.775c0-5.361 4.346-9.706 9.706-9.706 5.361 0 9.706 4.346 9.706 9.706 0 5.361-4.346 9.706-9.706 9.706-5.361 0-9.706-4.346-9.706-9.706z" fill="#001f3f" data-fill-palette-color="primary"></path></g><g id="text-1"></g></svg></g><g transform="matrix(1,0,0,1,0,261.282984)"><svg viewBox="0 0 245.672304 36.60578594513715" height="36.60578594513715" width="245.672304"><g transform="matrix(1,0,0,1,0,0)"><svg width="245.672304" viewBox="0.65 -35.2 240.6 35.85" height="36.60578594513715" data-palette-color="#001f3f"><path d="M15.65-12.1L13.65-11.4Q13-11.45 12.58-11.75 12.15-12.05 11.85-12.5 11.55-12.95 11.3-13.35L11.3-13.35 2.35-31.55Q2.1-32.05 1.63-32.73 1.15-33.4 0.65-33.9L0.65-33.9Q1-34.3 1.75-34.75 2.5-35.2 3.55-35.2L3.55-35.2Q4.7-35.2 5.28-34.6 5.85-34 6.3-33L6.3-33 15.2-13.9 13.5-13.2 22.25-31.8Q22.75-32.9 22.75-33.55L22.75-33.55Q22.75-33.9 22.65-34.23 22.55-34.55 22.4-34.8L22.4-34.8Q22.85-35 23.33-35.1 23.8-35.2 24.6-35.2L24.6-35.2Q25.6-35.2 26.08-34.63 26.55-34.05 26.6-33.25L26.6-33.25Q26.6-32.75 26.33-32.05 26.05-31.35 25.6-30.65L25.6-30.65 15.65-12.1ZM11.85-13.3L15.85-13.85 15.85-5.7Q15.85-4.25 15.98-2.85 16.1-1.45 16.5-0.35L16.5-0.35Q16.2-0.1 15.63 0.23 15.05 0.55 14.2 0.55L14.2 0.55Q13.2 0.55 12.55-0.05 11.9-0.65 11.9-1.65L11.9-1.65 11.85-13.3ZM38.7 0.65L38.7 0.65Q33.3 0.65 30.28-2.88 27.25-6.4 27.25-12.7L27.25-12.7Q27.25-19 30.28-22.53 33.3-26.05 38.7-26.05L38.7-26.05Q44.15-26.05 47.18-22.53 50.2-19 50.2-12.7L50.2-12.7Q50.2-6.4 47.18-2.88 44.15 0.65 38.7 0.65ZM38.7-1.15L38.7-1.15Q42.2-1.15 44.05-4.15 45.9-7.15 45.9-12.7L45.9-12.7Q45.9-18.25 44.05-21.23 42.2-24.2 38.7-24.2L38.7-24.2Q35.25-24.2 33.38-21.23 31.5-18.25 31.5-12.7L31.5-12.7Q31.5-7.15 33.38-4.15 35.25-1.15 38.7-1.15ZM73.7-26.05L73.7-26.05Q74.7-26.05 75.35-25.43 76-24.8 76-23.65L76-23.65 76.05-5.15Q76.05-3.75 76.38-3.18 76.7-2.6 77.45-2.6L77.45-2.6Q77.7-2.6 78.1-2.75 78.5-2.9 78.75-3.35L78.75-3.35Q79.35-2.6 79.35-1.8L79.35-1.8Q79.35-0.8 78.58-0.15 77.8 0.5 76.35 0.5L76.35 0.5Q74.45 0.5 73.45-0.78 72.45-2.05 72.45-4.6L72.45-4.6 72.45-8.15 73.2-9.05Q72.9-6 71.68-3.85 70.45-1.7 68.5-0.53 66.55 0.65 64.05 0.65L64.05 0.65Q60.05 0.65 58.15-1.7 56.25-4.05 56.2-9.85L56.2-9.85 56.2-19.75Q56.2-21.1 56.08-22.55 55.95-24 55.55-25.15L55.55-25.15Q56-25.45 56.53-25.75 57.05-26.05 57.9-26.05L57.9-26.05Q58.9-26.05 59.53-25.48 60.15-24.9 60.15-23.8L60.15-23.8 60.2-10.35Q60.2-7.2 60.68-5.25 61.15-3.3 62.25-2.43 63.35-1.55 65.2-1.55L65.2-1.55Q66.4-1.55 67.6-2.2 68.8-2.85 69.83-4.25 70.85-5.65 71.48-7.93 72.1-10.2 72.1-13.45L72.1-13.45Q72.1-16.45 72.08-18.4 72.05-20.35 72-21.58 71.95-22.8 71.8-23.63 71.65-24.45 71.4-25.15L71.4-25.15Q71.7-25.4 72.28-25.73 72.85-26.05 73.7-26.05ZM130.25-33.9L130.35-5.7Q130.35-4.25 130.45-2.85 130.55-1.45 130.95-0.35L130.95-0.35Q130.65-0.1 130.08 0.23 129.5 0.55 128.6 0.55L128.6 0.55Q127.65 0.55 127.05-0.05 126.45-0.65 126.45-1.65L126.45-1.65 126.35-30.15 127-31.25 115.4-5.45Q114.3-5.05 113.4-5 112.5-4.95 111.6-5.35L111.6-5.35Q109.55-9.25 107.43-13.53 105.3-17.8 103.25-22.2 101.2-26.6 99.3-30.8L99.3-30.8 99.8-30.3 99.85-5.7Q99.85-4.25 99.98-2.7 100.1-1.15 100.5-0.05L100.5-0.05Q100.2 0.2 99.8 0.38 99.4 0.55 98.85 0.55L98.85 0.55Q98.1 0.55 97.75 0.05 97.4-0.45 97.4-1.3L97.4-1.3 97.35-28.95Q97.35-30.8 97.28-32.13 97.2-33.45 97.05-34.5L97.05-34.5Q97.3-34.8 97.95-34.95 98.6-35.1 99.7-35.1L99.7-35.1Q100.45-35.1 100.95-34.93 101.45-34.75 101.8-34.3L101.8-34.3Q104.95-27.7 108.1-21.13 111.25-14.55 114.35-8.15L114.35-8.15 113.65-8.1Q115.05-11.15 116.55-14.55 118.05-17.95 119.58-21.45 121.1-24.95 122.58-28.33 124.05-31.7 125.35-34.7L125.35-34.7Q126.05-34.95 126.73-35.02 127.4-35.1 127.8-35.1L127.8-35.1Q128.75-35.1 129.48-34.77 130.2-34.45 130.25-33.9L130.25-33.9ZM158.6 0.5L158.6 0.5Q156.45 0.5 155.35-0.98 154.25-2.45 154.25-5.7L154.25-5.7 154.25-10.15 155.2-9.7Q154.35-6.7 152.63-4.38 150.9-2.05 148.6-0.75 146.3 0.55 143.6 0.55L143.6 0.55Q140.65 0.55 139-1.03 137.35-2.6 137.35-5.25L137.35-5.25Q137.35-7.3 138.43-8.9 139.5-10.5 141.38-11.6 143.25-12.7 145.65-13.35L145.65-13.35Q147.75-13.9 149.98-14.1 152.2-14.3 154.05-14.2L154.05-14.2 154.05-15.5Q154.05-19.85 152.6-22.05 151.15-24.25 147.7-24.25L147.7-24.25Q146.5-24.25 145.28-23.88 144.05-23.5 143.28-22.65 142.5-21.8 142.5-20.2L142.5-20.2Q142.5-19.2 143-18.13 143.5-17.05 144.65-16.65L144.65-16.65Q144.2-16.1 143.55-15.88 142.9-15.65 142.25-15.65L142.25-15.65Q140.5-15.65 139.5-17 138.5-18.35 138.5-20.05L138.5-20.05Q138.5-23 141.1-24.53 143.7-26.05 148.05-26.05L148.05-26.05Q153.25-26.05 155.68-23.4 158.1-20.75 158.1-15.25L158.1-15.25 158.1-5.25Q158.1-2.6 159.9-2.6L159.9-2.6Q160.3-2.6 160.8-2.85 161.3-3.1 161.55-3.65L161.55-3.65Q161.85-3.25 161.98-2.83 162.1-2.4 162.1-2.1L162.1-2.1Q162.1-1 161.1-0.25 160.1 0.5 158.6 0.5ZM145.4-2.25L145.4-2.25Q146.85-2.25 148.38-3.13 149.9-4 151.2-5.45 152.5-6.9 153.33-8.75 154.15-10.6 154.15-12.6L154.15-12.6Q153-12.7 151.58-12.6 150.15-12.5 148.8-12.25 147.45-12 146.4-11.6L146.4-11.6Q144.2-10.8 142.95-9.43 141.7-8.05 141.7-6.1L141.7-6.1Q141.7-4.6 142.55-3.38 143.4-2.15 145.4-2.25ZM172.4 0.55L172.4 0.55Q170 0.55 168.68-0.93 167.35-2.4 167.35-5L167.35-5 167.35-29.8Q167.35-30.85 168-31.43 168.65-32 169.7-32L169.7-32Q170.6-32 171.15-31.68 171.7-31.35 172-31.1L172-31.1Q171.55-29.7 171.45-27.45 171.35-25.2 171.35-21.35L171.35-21.35 171.35-5.25Q171.35-4 171.95-3.28 172.55-2.55 173.75-2.55L173.75-2.55Q174.45-2.55 175.15-2.8 175.85-3.05 176.1-3.6L176.1-3.6Q176.4-3.2 176.53-2.78 176.65-2.35 176.65-2L176.65-2Q176.65-0.9 175.45-0.18 174.25 0.55 172.4 0.55ZM163.65-23.1L163.65-23.1 163.7-24.25Q163.75-24.8 164.08-25.08 164.4-25.35 164.8-25.35L164.8-25.35 173.4-25.35Q173.6-25.35 174.2-25.38 174.8-25.4 175.53-25.43 176.25-25.45 176.85-25.48 177.45-25.5 177.65-25.5L177.65-25.5 177.6-24.4Q177.55-23.85 177.25-23.55 176.95-23.25 176.5-23.25L176.5-23.25 166.65-23.25Q166.15-23.25 165.15-23.23 164.15-23.2 163.65-23.1ZM189.35 0.55L189.35 0.55Q186.95 0.55 185.63-0.93 184.3-2.4 184.3-5L184.3-5 184.3-29.8Q184.3-30.85 184.95-31.43 185.6-32 186.65-32L186.65-32Q187.55-32 188.1-31.68 188.65-31.35 188.95-31.1L188.95-31.1Q188.5-29.7 188.4-27.45 188.3-25.2 188.3-21.35L188.3-21.35 188.3-5.25Q188.3-4 188.9-3.28 189.5-2.55 190.7-2.55L190.7-2.55Q191.4-2.55 192.1-2.8 192.8-3.05 193.05-3.6L193.05-3.6Q193.35-3.2 193.48-2.78 193.6-2.35 193.6-2L193.6-2Q193.6-0.9 192.4-0.18 191.2 0.55 189.35 0.55ZM180.6-23.1L180.6-23.1 180.65-24.25Q180.7-24.8 181.03-25.08 181.35-25.35 181.75-25.35L181.75-25.35 190.35-25.35Q190.55-25.35 191.15-25.38 191.75-25.4 192.48-25.43 193.2-25.45 193.8-25.48 194.4-25.5 194.6-25.5L194.6-25.5 194.55-24.4Q194.5-23.85 194.2-23.55 193.9-23.25 193.45-23.25L193.45-23.25 183.6-23.25Q183.1-23.25 182.1-23.23 181.1-23.2 180.6-23.1ZM209.05 0.65L209.05 0.65Q203.65 0.65 200.5-2.73 197.35-6.1 197.35-12.55L197.35-12.55Q197.35-18.8 200.43-22.43 203.5-26.05 209.25-26.05L209.25-26.05Q211.95-26.05 214-25.23 216.05-24.4 217.23-22.8 218.4-21.2 218.4-18.85L218.4-18.85Q218.4-15.1 215.38-13.18 212.35-11.25 207.05-11.25L207.05-11.25Q204.95-11.25 203.05-11.43 201.15-11.6 199.2-12L199.2-12 199.3-13.65Q200.55-13.4 202.22-13.25 203.9-13.1 205.5-13.05L205.5-13.05Q207.25-13.05 208.83-13.35 210.4-13.65 211.6-14.35 212.8-15.05 213.47-16.28 214.15-17.5 214.15-19.35L214.15-19.35Q214.15-21.3 213.4-22.35 212.65-23.4 211.5-23.83 210.35-24.25 209.1-24.25L209.1-24.25Q205.75-24.25 203.68-21.43 201.6-18.6 201.6-13.05L201.6-13.05Q201.6-8.9 202.72-6.53 203.85-4.15 205.75-3.13 207.65-2.1 210-2.1L210-2.1Q212.7-2.1 214.75-3.23 216.8-4.35 217.5-6.45L217.5-6.45Q218-6.25 218.23-5.73 218.45-5.2 217.95-3.95L217.95-3.95Q217-1.7 214.6-0.53 212.2 0.65 209.05 0.65ZM227.6 0.45L227.6 0.45Q226.7 0.45 226-0.18 225.3-0.8 225.3-1.9L225.3-1.9 225.3-20.3Q225.3-21.75 224.98-22.33 224.65-22.9 223.9-22.9L223.9-22.9Q223.65-22.9 223.25-22.75 222.85-22.6 222.6-22.1L222.6-22.1Q222-22.85 222-23.7L222-23.7Q222-24.7 222.8-25.35 223.6-26 225-26L225-26Q226.9-26 227.9-24.65 228.9-23.3 228.85-20.55L228.85-20.55 228.85-17.25 228.25-17.25Q228.75-21.6 230.65-23.83 232.55-26.05 235.5-26.05L235.5-26.05Q238.05-26.05 239.65-24.7 241.25-23.35 241.25-20.85L241.25-20.85Q241.25-19.2 240.35-18.15 239.45-17.1 238.3-17.05L238.3-17.05Q237.1-17 236.55-17.55L236.55-17.55Q237.15-18.5 237.33-19.23 237.5-19.95 237.5-20.75L237.5-20.75Q237.5-22.35 236.75-23.1 236-23.85 234.6-23.85L234.6-23.85Q233.25-23.85 232.03-22.7 230.8-21.55 230.05-18.98 229.3-16.4 229.3-12.05L229.3-12.05Q229.3-9.1 229.3-7.15 229.3-5.2 229.38-3.98 229.45-2.75 229.58-1.95 229.7-1.15 229.95-0.45L229.95-0.45Q229.65-0.15 229.08 0.15 228.5 0.45 227.6 0.45Z" opacity="1" transform="matrix(1,0,0,1,0,0)" fill="#001f3f" class="slogan-text-1" data-fill-palette-color="secondary" id="text-1"></path></svg></g></svg></g></svg></g></svg></g><g></g></svg></g></svg></g><defs></defs></svg><rect width="203.86869085392112" height="247.2" fill="none" stroke="none" visibility="hidden"></rect></g></svg></g></svg>